<svg width="40" height="28" viewBox="0 0 40 28" fill="none" xmlns="http://www.w3.org/2000/svg">
<g id="Frame" clip-path="url(#clip0_17_2581)">
<g id="Group">
<path id="Vector" d="M10.5046 0.105505C10.5046 0.142202 10.5734 0.51835 10.6606 0.944955C11.078 3.00459 11.3349 4.7844 11.5826 7.31651C11.7615 9.11927 11.8349 10.0642 11.8349 10.5872C11.8349 11.0505 11.8349 11.055 11.9404 11.0321C12.6101 10.8853 13.4725 10.8761 14.2294 11.0092C14.8165 11.1101 14.9037 11.133 16.5184 11.6468C17.1606 11.8486 17.7018 12.0183 17.7156 12.0183C17.7294 12.0183 17.7569 11.7982 17.7706 11.5229C18.0321 7.01376 18.2202 5.18349 18.7202 2.18349C18.8211 1.58257 18.922 1.04587 18.9495 0.995414C19 0.908257 19.0321 0.908257 19.6514 0.935781C24.867 1.18807 28.789 3.49541 30.7752 7.48165C30.9725 7.87615 31.211 8.41743 31.3119 8.68349C31.4083 8.94954 31.5 9.16055 31.5229 9.14679C31.5413 9.13303 31.5596 9.01376 31.5596 8.88532C31.5596 8.63303 31.6651 7.22477 31.7477 6.42202C31.9174 4.68807 32.1973 2.85321 32.5459 1.12385C32.6606 0.568808 32.7523 0.100918 32.7523 0.0779819C32.7523 0.0596333 27.7477 0.0458717 21.6284 0.0458717C12.3991 0.0458717 10.5046 0.0550461 10.5046 0.105505Z" fill="white"/>
<path id="Vector_2" d="M37.7064 9.31193C35.9633 9.70642 35.0229 10.055 32.9541 11.0917C30.922 12.1055 29.6284 12.6284 28.2569 12.9862C26.8899 13.344 25.3165 13.4954 23.844 13.4037C21.555 13.2661 19.5917 12.8394 16.0092 11.7018C14.6284 11.2615 14.1147 11.1468 13.367 11.1147C12.6789 11.0826 12.0734 11.1743 11.3211 11.422C10.4908 11.6972 9.78899 12.0505 7.22477 13.4908C5.66514 14.3624 3.86239 14.8899 2.11009 14.9862C1.63762 15.0138 1.5734 15.0229 1.73395 15.055C2.23395 15.1422 3.44037 15.1835 4.11009 15.1376C5.50459 15.0459 6.23395 14.8486 8.23395 14.0275C10.2982 13.1789 11.2018 12.945 12.5688 12.9037C14.3532 12.8486 15.4771 13.1101 18.0505 14.1697C20.055 15 20.8761 15.2431 22.3165 15.4404C23.1514 15.555 25.0826 15.555 26.0092 15.4404C26.8165 15.344 27.8303 15.1651 28.3073 15.0459C29.9404 14.6284 31.4954 13.7156 34.1055 11.6514C34.9954 10.945 35.6376 10.4817 36.0872 10.211C36.5046 9.9633 37.4358 9.52752 37.9266 9.3578C38.156 9.27523 38.3486 9.20183 38.3486 9.19266C38.3486 9.16514 38.3303 9.16972 37.7064 9.31193Z" fill="white"/>
<path id="Vector_3" d="M12.0642 13.1147L11.8578 13.1422L11.8303 15.2294C11.8119 16.3761 11.7752 17.656 11.7477 18.0734C11.5138 21.4358 11.2018 23.8899 10.6881 26.4495C10.5872 26.9495 10.5046 27.3853 10.5046 27.4174C10.5046 27.4679 12.4404 27.4771 21.6284 27.4771C27.7477 27.4771 32.7523 27.4633 32.7523 27.4404C32.7523 27.422 32.6606 26.9541 32.5459 26.3991C32.0688 24.0505 31.7523 21.6697 31.6055 19.3349C31.5321 18.2018 31.5321 18.2018 31.3807 18.6468C30.4128 21.422 28.4083 23.7064 25.7523 25.0596C23.9174 25.9908 21.9908 26.4725 19.6239 26.5872C19.2477 26.6009 18.945 26.6055 18.945 26.5872C18.945 26.5734 18.8624 26.1055 18.7615 25.555C18.1927 22.3945 17.8807 19.344 17.7523 15.578C17.7294 14.8486 17.7018 14.2477 17.6973 14.2431C17.6881 14.2385 17.3945 14.1193 17.0413 13.9771C15.8578 13.5092 15.0184 13.2798 13.9771 13.1422C13.4495 13.0734 12.4771 13.0596 12.0642 13.1147Z" fill="white"/>
</g>
</g>
<defs>
<clipPath id="clip0_17_2581">
<rect width="40" height="27.5229" fill="white"/>
</clipPath>
</defs>
</svg>
