<svg width="28" height="28" viewBox="0 0 28 28" fill="none" xmlns="http://www.w3.org/2000/svg">
<rect width="28" height="28" rx="2" fill="black" fill-opacity="0.04"/>
<path fill-rule="evenodd" clip-rule="evenodd" d="M6 8.61474C6 8.27523 6.27771 8 6.61741 8H21.3826C21.7236 8 22 8.27241 22 8.61474V9.23141C22 9.57092 21.7223 9.84615 21.3826 9.84615H6.61741C6.27643 9.84615 6 9.57375 6 9.23141V8.61474ZM6 13.5378C6 13.1983 6.27771 12.9231 6.61741 12.9231H21.3826C21.7236 12.9231 22 13.1955 22 13.5378V14.1545C22 14.494 21.7223 14.7692 21.3826 14.7692H6.61741C6.27643 14.7692 6 14.4968 6 14.1545V13.5378ZM6 18.4616C6 18.1221 6.27771 17.8469 6.61741 17.8469H21.3826C21.7236 17.8469 22 18.1193 22 18.4616V19.0783C22 19.4178 21.7223 19.693 21.3826 19.693H6.61741C6.27643 19.693 6 19.4206 6 19.0783V18.4616Z" fill="#545454"/>
</svg>
