<svg width="12" height="13" viewBox="0 0 12 13" fill="none" xmlns="http://www.w3.org/2000/svg">
<g clip-path="url(#clip0_396_2212)">
<path d="M11.8897 3.30727L9.19068 0.60821C9.12034 0.538871 9.02553 0.5 8.92675 0.5C8.82798 0.5 8.73317 0.538871 8.66282 0.60821L7.19876 2.07227L0.495932 8.7751C0.436732 8.8341 0.399033 8.91125 0.388866 8.99421L0.00293078 12.0792C-0.00412935 12.1356 0.0016055 12.1929 0.0197097 12.2468C0.0378138 12.3006 0.0678222 12.3497 0.107507 12.3904C0.177935 12.4598 0.272577 12.4991 0.371437 12.5H0.418745L3.50872 12.1091C3.59168 12.0989 3.66883 12.0612 3.72783 12.002L11.8947 3.83513C11.9647 3.7651 12.0039 3.67017 12.0039 3.5712C12.0039 3.47222 11.9647 3.3773 11.8947 3.30727H11.8897ZM3.28463 11.3845L0.794721 11.6958L1.10596 9.20585L7.45522 2.85659L9.62642 5.02779L3.28463 11.3845ZM10.1617 4.5074L7.99055 2.3362L8.92675 1.40249L11.0955 3.5712L10.1617 4.5074Z" fill="black"/>
</g>
<defs>
<clipPath id="clip0_396_2212">
<rect width="12" height="12" fill="white" transform="translate(0 0.5)"/>
</clipPath>
</defs>
</svg>
