<svg width="40" height="40" viewBox="0 0 40 40" fill="none" xmlns="http://www.w3.org/2000/svg">
<rect x="0.5" y="0.5" width="39" height="39" rx="3.5" fill="white"/>
<rect x="0.5" y="0.5" width="39" height="39" rx="3.5" stroke="#D9D9D9"/>
<g clip-path="url(#clip0_271_4247)">
<path d="M17.7549 28H21.8303C24.0522 28 25.8622 26.1929 25.8622 23.9681V16.1073H26.9964C27.3154 16.1073 27.5765 15.8463 27.5765 15.5272C27.5765 15.2081 27.3154 14.9471 26.9964 14.9471H25.2821H22.9558V13.5199C22.9558 12.6817 22.2741 12 21.4358 12H18.2567C17.4184 12 16.7368 12.6817 16.7368 13.5199V14.9471H14.3031H12.5801C12.2611 14.9471 12 15.2081 12 15.5272C12 15.8463 12.2611 16.1073 12.5801 16.1073H13.723V23.9681C13.723 26.1929 15.533 28 17.7549 28ZM17.897 13.5199C17.897 13.3227 18.0595 13.1603 18.2567 13.1603H21.4358C21.6331 13.1603 21.7955 13.3227 21.7955 13.5199V14.9471H17.897V13.5199ZM17.3169 16.1073H22.3756H24.702V23.9681C24.702 25.5518 23.4141 26.8397 21.8303 26.8397H17.7549C16.1711 26.8397 14.8832 25.5518 14.8832 23.9681V16.1073H17.3169Z" fill="#545454"/>
<path d="M18.2852 23.3183C18.6043 23.3183 18.8653 23.0573 18.8653 22.7382V19.7244C18.8653 19.4053 18.6043 19.1443 18.2852 19.1443C17.9661 19.1443 17.7051 19.4053 17.7051 19.7244V22.7382C17.7051 23.0573 17.9661 23.3183 18.2852 23.3183Z" fill="#545454"/>
<path d="M21.5137 23.3183C21.8328 23.3183 22.0939 23.0573 22.0939 22.7382V19.7244C22.0939 19.4053 21.8328 19.1443 21.5137 19.1443C21.1947 19.1443 20.9336 19.4053 20.9336 19.7244V22.7382C20.9336 23.0573 21.1947 23.3183 21.5137 23.3183Z" fill="#545454"/>
</g>
<defs>
<clipPath id="clip0_271_4247">
<rect width="16" height="16" fill="white" transform="translate(12 12)"/>
</clipPath>
</defs>
</svg>
