<svg width="40" height="40" viewBox="0 0 40 40" fill="none" xmlns="http://www.w3.org/2000/svg">
<rect x="0.5" y="0.5" width="39" height="39" rx="3.5" fill="white"/>
<rect x="0.5" y="0.5" width="39" height="39" rx="3.5" stroke="#D9D9D9"/>
<g clip-path="url(#clip0_227_5710)">
<g clip-path="url(#clip1_227_5710)">
<path fill-rule="evenodd" clip-rule="evenodd" d="M17.4634 12.7805C17.4634 12.3494 17.114 12 16.6829 12C16.2519 12 15.9024 12.3494 15.9024 12.7805V13.1754C15.5154 13.1815 15.1714 13.1953 14.8685 13.227C14.307 13.2857 13.7979 13.4123 13.3452 13.7256C13.0364 13.9394 12.7686 14.2071 12.5549 14.516C12.2416 14.9687 12.1149 15.4777 12.0563 16.0392C12.0047 16.5323 12.0004 17.134 12 17.8537L12 17.9734C12 18.0007 12 18.0281 12 18.0558V22.5917C12 23.6485 12 24.52 12.0927 25.2098C12.19 25.934 12.4023 26.5735 12.9144 27.0856C13.4265 27.5977 14.066 27.81 14.7902 27.9073C15.48 28.0001 16.3514 28 17.4083 28H22.2014C23.2582 28 24.1298 28.0001 24.8196 27.9073C25.5437 27.81 26.1833 27.5977 26.6953 27.0856C27.2074 26.5735 27.4197 25.934 27.5171 25.2098C27.6098 24.52 27.6098 23.6485 27.6098 22.5917V18.0558C27.6098 18.0319 27.6098 18.0081 27.6098 17.9845V17.8537C27.6094 17.134 27.6051 16.5323 27.5535 16.0392C27.4949 15.4777 27.3682 14.9687 27.0549 14.516C26.8411 14.2071 26.5733 13.9394 26.2645 13.7256C25.8118 13.4123 25.3028 13.2857 24.7413 13.227C24.4383 13.1953 24.0944 13.1815 23.7073 13.1754V12.7805C23.7073 12.3494 23.3579 12 22.9268 12C22.4958 12 22.1463 12.3494 22.1463 12.7805V13.1707H17.4634V12.7805ZM26.0487 17.8537C26.0482 17.1227 26.0432 16.6057 26.001 16.2014C25.9556 15.7672 25.8742 15.5529 25.7713 15.4043C25.6645 15.2499 25.5306 15.116 25.3762 15.0091C25.2276 14.9063 25.0132 14.8249 24.579 14.7795C24.3364 14.7541 24.0531 14.7422 23.7073 14.7366V15.122C23.7073 15.553 23.3579 15.9024 22.9268 15.9024C22.4958 15.9024 22.1463 15.553 22.1463 15.122V14.7317H17.4634V15.122C17.4634 15.553 17.114 15.9024 16.6829 15.9024C16.2519 15.9024 15.9024 15.553 15.9024 15.122V14.7366C15.5567 14.7422 15.2734 14.7541 15.0307 14.7795C14.5965 14.8249 14.3822 14.9063 14.2336 15.0091C14.0792 15.116 13.9453 15.2499 13.8384 15.4043C13.7356 15.5529 13.6541 15.7672 13.6088 16.2014C13.5665 16.6057 13.5616 17.1227 13.561 17.8537H26.0487ZM13.561 19.4146V22.5366C13.561 23.6624 13.5626 24.4283 13.6397 25.0018C13.7138 25.5529 13.8445 25.8081 14.0182 25.9818C14.1919 26.1556 14.4471 26.2862 14.9982 26.3603C15.5717 26.4374 16.3376 26.439 17.4634 26.439H22.1463C23.2722 26.439 24.038 26.4374 24.6116 26.3603C25.1626 26.2862 25.4178 26.1556 25.5916 25.9818C25.7653 25.8081 25.896 25.5529 25.97 25.0018C26.0471 24.4283 26.0488 23.6624 26.0488 22.5366V19.4146H13.561Z" fill="#545454"/>
</g>
</g>
<defs>
<clipPath id="clip0_227_5710">
<rect width="16" height="16" fill="white" transform="translate(12 12)"/>
</clipPath>
<clipPath id="clip1_227_5710">
<rect width="16" height="16" fill="white" transform="translate(12 12)"/>
</clipPath>
</defs>
</svg>
