<svg width="28" height="28" viewBox="0 0 28 28" fill="none" xmlns="http://www.w3.org/2000/svg">
<rect width="28" height="28" rx="2" fill="black" fill-opacity="0.04"/>
<g clip-path="url(#clip0_396_396)">
<path d="M16.2072 14.3766C16.7087 13.9297 17.0621 13.3417 17.2208 12.6903C17.3795 12.0389 17.3359 11.3549 17.0959 10.7287C16.8558 10.1025 16.4306 9.56374 15.8764 9.18362C15.3223 8.8035 14.6654 8.59998 13.9926 8.59998C13.3198 8.59998 12.6629 8.8035 12.1088 9.18362C11.5546 9.56374 11.1294 10.1025 10.8893 10.7287C10.6493 11.3549 10.6057 12.0389 10.7644 12.6903C10.9231 13.3417 11.2765 13.9297 11.778 14.3766C10.8503 14.7002 10.0463 15.3028 9.47701 16.1012C8.90776 16.8996 8.60131 17.8543 8.59998 18.8336C8.59998 18.9838 8.65986 19.1279 8.76646 19.2341C8.87306 19.3403 9.01764 19.4 9.1684 19.4C9.31915 19.4 9.46373 19.3403 9.57033 19.2341C9.67693 19.1279 9.73682 18.9838 9.73682 18.8336C9.73779 17.8801 10.1184 16.9659 10.7952 16.2916C11.472 15.6173 12.3896 15.2381 13.3467 15.2371H14.6533C15.6104 15.2381 16.528 15.6173 17.2048 16.2916C17.8815 16.9659 18.2622 17.8801 18.2631 18.8336C18.2631 18.9838 18.323 19.1279 18.4296 19.2341C18.5362 19.3403 18.6808 19.4 18.8316 19.4C18.9823 19.4 19.1269 19.3403 19.2335 19.2341C19.3401 19.1279 19.4 18.9838 19.4 18.8336C19.3976 17.8525 19.089 16.8965 18.5169 16.0979C17.9449 15.2993 17.1377 14.6978 16.2072 14.3766ZM13.9926 9.76139C14.4226 9.76139 14.8429 9.88842 15.2004 10.1264C15.5579 10.3644 15.8366 10.7027 16.0011 11.0985C16.1657 11.4943 16.2087 11.9298 16.1248 12.35C16.041 12.7701 15.8339 13.1561 15.5299 13.459C15.2258 13.7619 14.8384 13.9682 14.4167 14.0518C13.995 14.1354 13.5579 14.0925 13.1606 13.9285C12.7634 13.7646 12.4238 13.487 12.185 13.1308C11.9461 12.7746 11.8186 12.3558 11.8186 11.9274C11.8186 11.643 11.8748 11.3613 11.9841 11.0985C12.0933 10.8357 12.2534 10.5969 12.4553 10.3958C12.863 9.98959 13.416 9.76139 13.9926 9.76139Z" fill="#545454"/>
</g>
<defs>
<clipPath id="clip0_396_396">
<rect width="12" height="12" fill="white" transform="translate(8 8)"/>
</clipPath>
</defs>
</svg>
