<svg width="16" height="16" viewBox="0 0 16 16" fill="none" xmlns="http://www.w3.org/2000/svg">
<path d="M8.92917 1.92801V4.4H11.8167L8.92917 1.92801ZM12.9292 5.6H7.72917V1.2H3.75263C3.0907 1.2 2.55378 1.736 2.55264 2.39793L2.53331 13.5979C2.53217 14.2607 3.0685 14.7989 3.73124 14.8L11.7292 14.8C12.3919 14.8 12.9292 14.2627 12.9292 13.6V5.6ZM8.52227 0L14.1292 4.8V13.6C14.1292 14.9255 13.0547 16 11.7292 16H3.73331C2.40369 15.9977 1.33103 14.9213 1.33332 13.5959L1.35264 2.39586C1.35492 1.072 2.42877 0 3.75263 0H8.52227Z" fill="#545454"/>
</svg>
