<svg width="12" height="12" viewBox="0 0 12 12" fill="none" xmlns="http://www.w3.org/2000/svg">
<g clip-path="url(#clip0_271_4567)">
<path d="M0.273684 0.273684C0.638584 -0.0912125 1.23023 -0.0912281 1.59515 0.273684L6 4.67854L10.4049 0.273684C10.7698 -0.091225 11.3614 -0.0912312 11.7263 0.273684C12.0912 0.638584 12.0912 1.23022 11.7263 1.59513L7.32145 5.99999L11.7263 10.4048C12.0912 10.7698 12.0912 11.3614 11.7263 11.7263C11.3614 12.0912 10.7698 12.0912 10.4049 11.7263L6 7.32144L1.59514 11.7263C1.23023 12.0912 0.638587 12.0912 0.273687 11.7263C-0.0912317 11.3614 -0.0912254 10.7698 0.273687 10.4048L4.67854 5.99999L0.273687 1.59513C-0.0912223 1.23022 -0.0912347 0.638606 0.273684 0.273684Z" fill="#FFB3B3"/>
</g>
<defs>
<clipPath id="clip0_271_4567">
<rect width="12" height="12" fill="white"/>
</clipPath>
</defs>
</svg>
