<svg width="16" height="16" viewBox="0 0 16 16" fill="none" xmlns="http://www.w3.org/2000/svg">
<g clip-path="url(#clip0_396_294)">
<path d="M5.7549 16H9.83031C12.0522 16 13.8622 14.1929 13.8622 11.9681V4.10732H14.9964C15.3154 4.10732 15.5765 3.84627 15.5765 3.52719C15.5765 3.20812 15.3154 2.94706 14.9964 2.94706H13.2821H10.9558V1.51994C10.9558 0.681653 10.2741 0 9.43582 0H6.25671C5.41842 0 4.73677 0.681653 4.73677 1.51994V2.94706H2.30312H0.580131C0.261059 2.94706 0 3.20812 0 3.52719C0 3.84627 0.261059 4.10732 0.580131 4.10732H1.72299V11.9681C1.72299 14.1929 3.533 16 5.7549 16ZM5.89703 1.51994C5.89703 1.3227 6.05946 1.16026 6.25671 1.16026H9.43582C9.63307 1.16026 9.7955 1.3227 9.7955 1.51994V2.94706H5.89703V1.51994ZM5.3169 4.10732H10.3756H12.702V11.9681C12.702 13.5518 11.4141 14.8397 9.83031 14.8397H5.7549C4.17114 14.8397 2.88325 13.5518 2.88325 11.9681V4.10732H5.3169Z" fill="white"/>
<path d="M6.2857 11.3183C6.60477 11.3183 6.86583 11.0573 6.86583 10.7382V7.72442C6.86583 7.40535 6.60477 7.14429 6.2857 7.14429C5.96663 7.14429 5.70557 7.40535 5.70557 7.72442V10.7382C5.70557 11.0573 5.96663 11.3183 6.2857 11.3183Z" fill="white"/>
<path d="M9.51421 11.3183C9.83328 11.3183 10.0943 11.0573 10.0943 10.7382V7.72442C10.0943 7.40535 9.83328 7.14429 9.51421 7.14429C9.19514 7.14429 8.93408 7.40535 8.93408 7.72442V10.7382C8.93408 11.0573 9.19514 11.3183 9.51421 11.3183Z" fill="white"/>
</g>
<defs>
<clipPath id="clip0_396_294">
<rect width="16" height="16" fill="white"/>
</clipPath>
</defs>
</svg>
