<svg width="16" height="16" viewBox="0 0 16 16" fill="none" xmlns="http://www.w3.org/2000/svg">
<path d="M14.5177 7.18755C14.5177 7.8208 14.5177 8.45219 14.5177 9.08544C14.5177 10.0437 14.5177 11 14.5177 11.9583C14.5177 12.2554 14.5307 12.5581 14.4917 12.8534C14.5009 12.7884 14.5102 12.7215 14.5177 12.6565C14.4842 12.8961 14.4192 13.1282 14.3264 13.3529C14.3505 13.2935 14.3765 13.2341 14.4007 13.1746C14.3041 13.3993 14.1815 13.611 14.0329 13.8042C14.0719 13.754 14.1109 13.7039 14.1499 13.6537C14.0051 13.8394 13.8398 14.0047 13.6541 14.1496C13.7042 14.1106 13.7544 14.0716 13.8045 14.0326C13.6113 14.1811 13.3996 14.3056 13.1749 14.4003C13.2343 14.3761 13.2938 14.3501 13.3532 14.326C13.1303 14.4188 12.8963 14.482 12.6568 14.5173C12.7218 14.508 12.7886 14.4987 12.8536 14.4913C12.4692 14.5433 12.068 14.5173 11.6817 14.5173C10.9537 14.5173 10.2257 14.5173 9.49767 14.5173C8.60436 14.5173 7.71105 14.5173 6.81775 14.5173C6.0563 14.5173 5.29485 14.5173 4.53154 14.5173C4.19911 14.5173 3.86667 14.5191 3.53609 14.5173C3.40609 14.5173 3.27794 14.508 3.1498 14.4913C3.2148 14.5005 3.28166 14.5098 3.34666 14.5173C3.10708 14.4838 2.87493 14.4188 2.65021 14.326C2.70964 14.3501 2.76907 14.3761 2.8285 14.4003C2.60378 14.3037 2.39206 14.1811 2.19891 14.0326C2.24906 14.0716 2.2992 14.1106 2.34935 14.1496C2.16363 14.0047 1.99834 13.8394 1.85348 13.6537C1.89248 13.7039 1.93148 13.754 1.97048 13.8042C1.8219 13.611 1.69747 13.3993 1.60276 13.1746C1.6269 13.2341 1.6529 13.2935 1.67704 13.3529C1.58418 13.1301 1.52104 12.8961 1.48575 12.6565C1.49504 12.7215 1.50432 12.7884 1.51175 12.8534C1.45975 12.469 1.48575 12.0678 1.48575 11.6816C1.48575 10.9536 1.48575 10.2257 1.48575 9.4977C1.48575 8.60446 1.48575 7.71123 1.48575 6.818C1.48575 6.05661 1.48575 5.29523 1.48575 4.53199C1.48575 4.19958 1.4839 3.86717 1.48575 3.53662C1.48575 3.40663 1.49504 3.27849 1.51175 3.15036C1.50247 3.21535 1.49318 3.2822 1.48575 3.3472C1.51918 3.10764 1.58418 2.87551 1.67704 2.65081C1.6529 2.71024 1.6269 2.76966 1.60276 2.82909C1.69933 2.60439 1.8219 2.39269 1.97048 2.19955C1.93148 2.24969 1.89248 2.29983 1.85348 2.34997C1.99834 2.16427 2.16363 1.99899 2.34935 1.85415C2.2992 1.89314 2.24906 1.93214 2.19891 1.97114C2.39206 1.82258 2.60378 1.69815 2.8285 1.60345C2.76907 1.62759 2.70964 1.65359 2.65021 1.67773C2.87307 1.58488 3.10708 1.52174 3.34666 1.48645C3.28166 1.49574 3.2148 1.50502 3.1498 1.51245C3.40794 1.47717 3.66981 1.48645 3.92982 1.48645C4.34211 1.48645 4.75626 1.48645 5.16856 1.48645C6.15287 1.48645 7.13718 1.48645 8.12149 1.48645C8.35364 1.48645 8.58393 1.48645 8.81608 1.48645C9.20424 1.48645 9.57753 1.14476 9.55896 0.743639C9.54039 0.340663 9.23209 0.000825349 8.81608 0.000825349C8.37779 0.000825349 7.93949 0.000825349 7.50119 0.000825349C6.67288 0.000825349 5.84458 0.000825349 5.01441 0.000825349C4.52412 0.000825349 4.03382 -0.00103169 3.54352 0.000825349C2.24906 0.00453942 0.99174 0.736211 0.401153 1.90057C0.141146 2.41311 0.00185719 2.97022 0 3.5459C0 3.65547 0 3.76503 0 3.87646C0 4.44471 0 5.01296 0 5.57936C0 6.39831 0 7.21726 0 8.03621C0 8.85145 0 9.66669 0 10.4819C0 11.039 0 11.5961 0 12.1533C0 12.2554 0 12.3575 0 12.4578C0.00185719 13.0613 0.156004 13.6556 0.445726 14.1849C1.06046 15.3009 2.27506 15.9955 3.54352 15.9992C3.88524 16.001 4.22511 15.9992 4.56683 15.9992C5.28928 15.9992 6.01173 15.9992 6.73417 15.9992C7.58291 15.9992 8.4335 15.9992 9.28224 15.9992C10.0028 15.9992 10.7234 15.9992 11.444 15.9992C11.782 15.9992 12.1182 15.9992 12.4562 15.9992C13.7302 15.9955 14.956 15.2916 15.5651 14.1644C15.8493 13.6389 15.9997 13.0521 15.9997 12.4541C15.9997 12.2888 15.9997 12.1235 15.9997 11.9564C15.9997 11.2006 15.9997 10.4429 15.9997 9.68712C15.9997 8.9703 15.9997 8.25163 15.9997 7.53481C15.9997 7.41782 15.9997 7.30268 15.9997 7.18569C15.9997 6.79757 15.658 6.42431 15.2568 6.44288C14.8575 6.4633 14.5177 6.77157 14.5177 7.18755Z" fill="#545454"/>
<path d="M14.5585 2.39824C14.3412 2.61551 14.1258 2.83093 13.9085 3.0482C13.3903 3.56631 12.874 4.08257 12.3559 4.60068C11.7281 5.22836 11.1004 5.85604 10.4727 6.48371C9.93224 7.02411 9.3918 7.56451 8.85135 8.1049C8.58949 8.36674 8.3202 8.62487 8.06205 8.89414C8.05833 8.89786 8.05462 8.90157 8.0509 8.90528C8.22548 8.83286 8.40191 8.76044 8.57649 8.68801C7.96547 8.72515 7.3526 8.76229 6.74159 8.79943C6.6543 8.80501 6.56701 8.81058 6.47972 8.81615C6.72673 9.06313 6.97559 9.31198 7.2226 9.55896C7.25046 8.93686 7.27646 8.31475 7.30431 7.69078C7.30803 7.6035 7.31174 7.51437 7.31546 7.42709C7.24303 7.60165 7.1706 7.77807 7.09817 7.95263C7.31546 7.73535 7.53275 7.51808 7.7519 7.29895C8.27377 6.77712 8.79564 6.2553 9.31751 5.73347C9.94524 5.10579 10.573 4.47812 11.2007 3.85044C11.7411 3.31004 12.2816 2.76964 12.822 2.22925C13.0802 1.97112 13.3365 1.71113 13.5965 1.45486C13.6188 1.43258 13.641 1.41401 13.6652 1.39358C13.615 1.43258 13.5649 1.47158 13.5148 1.51058C13.5575 1.47901 13.6002 1.45486 13.6485 1.43258C13.589 1.45672 13.5296 1.48272 13.4702 1.50686C13.5185 1.48829 13.5649 1.47529 13.615 1.46786C13.55 1.47715 13.4832 1.48643 13.4182 1.49386C13.4683 1.48829 13.5166 1.48643 13.5668 1.492C13.5018 1.48272 13.4349 1.47343 13.3699 1.46601C13.4293 1.47343 13.4832 1.48829 13.537 1.51243C13.4776 1.48829 13.4182 1.46229 13.3588 1.43815C13.3978 1.45672 13.433 1.47715 13.4683 1.50315C13.4182 1.46415 13.368 1.42515 13.3179 1.38615C13.4832 1.51615 13.6243 1.68514 13.7729 1.83184C13.9921 2.05097 14.2131 2.27196 14.4322 2.49109C14.4954 2.55423 14.5622 2.61551 14.6179 2.68422C14.5789 2.63408 14.5399 2.58394 14.5009 2.5338C14.5251 2.56908 14.5474 2.60437 14.5659 2.64337C14.5418 2.58394 14.5158 2.52452 14.4916 2.46509C14.5139 2.51894 14.5288 2.57466 14.5381 2.63222C14.5288 2.56723 14.5195 2.50037 14.5121 2.43538C14.5176 2.48552 14.5158 2.5338 14.5102 2.58394C14.5195 2.51894 14.5288 2.45209 14.5362 2.3871C14.5288 2.43724 14.5158 2.48552 14.4972 2.53194C14.5214 2.47252 14.5474 2.41309 14.5715 2.35367C14.5511 2.40195 14.5251 2.44466 14.4935 2.48738C14.5325 2.43724 14.5715 2.3871 14.6105 2.33696C14.5956 2.35924 14.5771 2.37781 14.5585 2.39824C14.4248 2.53751 14.3412 2.72879 14.3412 2.92378C14.3412 3.10577 14.4229 3.32304 14.5585 3.44932C14.8501 3.71673 15.3218 3.7483 15.6097 3.44932C15.9384 3.10577 16.0758 2.62851 15.9588 2.16611C15.8994 1.92655 15.7601 1.71671 15.5874 1.544C15.3942 1.35087 15.1992 1.15588 15.0061 0.96275C14.8222 0.778904 14.6384 0.5932 14.4526 0.409354C14.2688 0.227365 14.0273 0.0732309 13.7673 0.0342332C13.5389 0.000806583 13.3123 -0.0103356 13.0895 0.0713739C12.8833 0.147512 12.7143 0.244078 12.5546 0.398212C12.4153 0.531918 12.2797 0.673053 12.1442 0.808616C11.8061 1.1466 11.4681 1.48458 11.1301 1.82256C10.677 2.27382 10.222 2.72879 9.76695 3.18376C9.28594 3.66473 8.80678 4.14385 8.32577 4.62482C7.90233 5.04823 7.47889 5.47163 7.05545 5.89503C6.78059 6.16987 6.50387 6.44657 6.229 6.72141C6.17329 6.77712 6.11571 6.83284 6.06 6.8904C5.91142 7.04268 5.84456 7.22653 5.83156 7.43637C5.82785 7.50694 5.82599 7.57751 5.82228 7.64807C5.79628 8.23861 5.77027 8.82915 5.74427 9.41968C5.74242 9.46611 5.74056 9.51254 5.7387 9.55896C5.72199 9.94337 6.09343 10.3259 6.48158 10.3018C6.8623 10.2776 7.24117 10.2553 7.62189 10.2312C7.86333 10.2164 8.10662 10.2015 8.34805 10.1866C8.41306 10.1829 8.47806 10.1792 8.54306 10.1755C8.75664 10.1625 8.94421 10.1086 9.10393 9.95451C9.44565 9.62767 9.77438 9.28412 10.1087 8.94985C10.8218 8.23675 11.5369 7.52179 12.25 6.80869C12.9799 6.07888 13.7098 5.34906 14.4396 4.61925C14.8241 4.23484 15.2122 3.85601 15.5911 3.46789C15.5967 3.46232 15.6022 3.45675 15.6078 3.45118C15.8827 3.17633 15.9031 2.67122 15.6078 2.40009C15.3125 2.12525 14.8519 2.10483 14.5585 2.39824Z" fill="#545454"/>
</svg>
