<svg width="40" height="40" viewBox="0 0 40 40" fill="none" xmlns="http://www.w3.org/2000/svg">
<rect x="0.5" y="0.5" width="39" height="39" rx="3.5" fill="white"/>
<rect x="0.5" y="0.5" width="39" height="39" rx="3.5" stroke="#D9D9D9"/>
<path d="M20.9294 13.928V16.4H23.8169L20.9294 13.928ZM24.9294 17.6H19.7294V13.2H15.7528C15.0909 13.2 14.554 13.736 14.5528 14.3979L14.5335 25.5979C14.5324 26.2607 15.0687 26.7989 15.7314 26.8L23.7294 26.8C24.3921 26.8 24.9294 26.2627 24.9294 25.6V17.6ZM20.5225 12L26.1294 16.8V25.6C26.1294 26.9255 25.0548 28 23.7294 28H15.7335C14.4039 27.9977 13.3312 26.9213 13.3335 25.5959L13.3528 14.3959C13.3551 13.072 14.429 12 15.7528 12H20.5225Z" fill="#545454"/>
</svg>
