<svg width="12" height="13" viewBox="0 0 12 13" fill="none" xmlns="http://www.w3.org/2000/svg">
<g clip-path="url(#clip0_396_2218)">
<path d="M4.31617 12.5H7.37273C9.03916 12.5 10.3967 11.1447 10.3967 9.47607V3.58049H11.2473C11.4866 3.58049 11.6824 3.3847 11.6824 3.1454C11.6824 2.90609 11.4866 2.7103 11.2473 2.7103H9.96157H8.21682V1.63996C8.21682 1.01124 7.70558 0.5 7.07687 0.5H4.69253C4.06381 0.5 3.55257 1.01124 3.55257 1.63996V2.7103H1.72734H0.435098C0.195794 2.7103 0 2.90609 0 3.1454C0 3.3847 0.195794 3.58049 0.435098 3.58049H1.29224V9.47607C1.29224 11.1447 2.64975 12.5 4.31617 12.5ZM4.42277 1.63996C4.42277 1.49202 4.5446 1.3702 4.69253 1.3702H7.07687C7.2248 1.3702 7.34663 1.49202 7.34663 1.63996V2.7103H4.42277V1.63996ZM3.98767 3.58049H7.78173H9.52647V9.47607C9.52647 10.6639 8.56055 11.6298 7.37273 11.6298H4.31617C3.12835 11.6298 2.16244 10.6639 2.16244 9.47607V3.58049H3.98767Z" fill="#FF5656"/>
<path d="M4.71439 8.98881C4.9537 8.98881 5.14949 8.79301 5.14949 8.55371V6.29337C5.14949 6.05407 4.9537 5.85828 4.71439 5.85828C4.47509 5.85828 4.2793 6.05407 4.2793 6.29337V8.55371C4.2793 8.79301 4.47509 8.98881 4.71439 8.98881Z" fill="#FF5656"/>
<path d="M7.13627 8.98881C7.37557 8.98881 7.57137 8.79301 7.57137 8.55371V6.29337C7.57137 6.05407 7.37557 5.85828 7.13627 5.85828C6.89697 5.85828 6.70117 6.05407 6.70117 6.29337V8.55371C6.70117 8.79301 6.89697 8.98881 7.13627 8.98881Z" fill="#FF5656"/>
</g>
<defs>
<clipPath id="clip0_396_2218">
<rect width="12" height="12" fill="white" transform="translate(0 0.5)"/>
</clipPath>
</defs>
</svg>
