<?xml version="1.0" standalone="no"?>
<!DOCTYPE svg PUBLIC "-//W3C//DTD SVG 20010904//EN"
 "http://www.w3.org/TR/2001/REC-SVG-20010904/DTD/svg10.dtd">
<svg version="1.0" xmlns="http://www.w3.org/2000/svg"
 width="357.000000pt" height="90.000000pt" viewBox="0 0 357.000000 90.000000"
 preserveAspectRatio="xMidYMid meet">

<g transform="translate(0.000000,90.000000) scale(0.100000,-0.100000)"
fill="#000000" stroke="none">
<path d="M2985 887 c-44 -5 -81 -10 -82 -11 -2 -1 -50 -118 -107 -259 -102
-251 -104 -257 -80 -257 15 0 27 7 30 18 3 9 33 88 66 175 41 105 64 153 70
145 46 -68 148 -308 148 -348 0 -14 9 -20 38 -23 21 -2 7 -4 -34 -5 -38 -1
-142 7 -230 18 -87 11 -204 20 -258 20 l-99 0 6 163 c5 143 14 225 33 320 l6
27 -126 0 c-113 0 -126 -2 -126 -17 0 -10 7 -63 15 -118 8 -55 15 -173 15
-262 l0 -163 51 21 c29 11 57 18 63 15 6 -2 4 -5 -4 -5 -35 -2 -141 -63 -210
-121 -98 -82 -166 -114 -245 -115 l-60 0 -3 35 c-3 47 72 180 194 343 l91 122
-121 9 c-223 15 -281 14 -313 -10 -36 -27 -50 -65 -37 -101 20 -57 130 -88
173 -49 28 25 26 49 -4 82 -15 16 -25 37 -23 48 7 48 131 21 144 -31 7 -26
-15 -57 -156 -223 -89 -104 -154 -220 -148 -266 3 -24 9 -29 43 -37 55 -12
291 -2 338 14 21 7 70 41 110 77 149 132 291 192 467 198 58 2 93 0 78 -4 -22
-6 -36 -24 -73 -100 -25 -52 -59 -113 -75 -137 -17 -24 -30 -46 -30 -49 0 -3
66 -6 146 -6 l146 0 -36 41 c-19 23 -41 57 -47 76 -11 35 -9 156 3 168 4 4 55
2 114 -4 59 -6 144 -12 188 -13 45 0 67 -3 49 -5 -31 -4 -31 -5 -25 -41 4 -20
7 -79 7 -130 l0 -92 173 0 c94 0 172 1 172 3 0 1 -33 67 -73 147 -60 119 -76
145 -92 142 -11 -1 18 12 65 31 94 36 169 76 191 103 7 9 -9 3 -36 -14 -53
-32 -220 -93 -251 -91 -15 1 -14 2 4 7 13 4 24 9 25 12 0 3 -20 62 -46 132
-53 145 -117 350 -117 378 0 26 -5 27 -95 17z m-552 -534 c-7 -2 -19 -2 -25 0
-7 3 -2 5 12 5 14 0 19 -2 13 -5z m745 -20 c-10 -2 -28 -2 -40 0 -13 2 -5 4
17 4 22 1 32 -1 23 -4z m22 -33 c-14 -4 -36 -8 -50 -8 -22 0 -22 1 5 8 17 4
39 8 50 8 16 0 15 -2 -5 -8z"/>
<path d="M344 818 c6 -30 36 -272 36 -290 0 -5 17 -9 38 -9 34 -1 32 -2 -14
-9 -29 -4 -83 -25 -129 -51 -44 -24 -100 -49 -125 -56 l-45 -13 51 4 c29 3 82
18 119 35 36 17 83 33 103 35 20 3 30 3 21 0 -13 -4 -17 -28 -23 -129 -4 -69
-13 -168 -21 -222 -8 -53 -15 -98 -15 -100 0 -1 151 -3 336 -3 l336 0 -6 32
c-4 18 -12 74 -18 125 l-11 93 -38 -58 c-62 -94 -160 -151 -290 -167 -53 -7
-57 -6 -62 17 -9 37 -25 174 -32 275 -7 87 -8 92 -32 98 -14 3 -23 8 -21 10 2
3 42 -9 89 -25 97 -34 190 -39 302 -15 73 15 233 89 329 151 65 42 135 54 178
32 32 -17 53 -80 44 -131 -7 -46 -24 -55 -73 -37 -50 19 -131 15 -183 -8 -57
-25 -124 -99 -138 -154 -35 -126 30 -231 143 -232 31 -1 64 6 82 16 77 44 74
43 98 20 21 -19 35 -22 120 -22 73 0 99 3 103 14 3 7 -5 42 -16 77 -20 59 -21
76 -15 214 6 146 6 151 -17 195 -36 67 -105 100 -209 100 -85 0 -137 -15 -204
-60 -63 -43 -134 -76 -213 -100 -103 -31 -283 -25 -392 13 -66 24 -68 28 -4
11 25 -7 34 15 34 91 0 48 14 159 26 218 6 28 7 28 57 22 150 -19 253 -83 312
-195 l19 -35 17 120 c10 66 18 123 19 128 0 4 -151 7 -336 7 l-336 0 6 -32z
m131 -368 c25 -11 -1 -11 -35 0 -20 6 -21 8 -5 8 11 0 29 -3 40 -8z m909 -76
c9 -8 16 -30 16 -47 0 -55 -30 -160 -55 -199 -50 -76 -113 -55 -123 40 -12
128 99 270 162 206z"/>
<path d="M2420 273 c-8 -3 -47 -21 -86 -40 l-71 -34 -12 -69 c-18 -109 -28
-100 115 -100 126 0 126 0 120 23 -3 12 -11 68 -18 125 -12 99 -16 106 -48 95z"/>
</g>
</svg>
