<?xml version="1.0" standalone="no"?>
<!DOCTYPE svg PUBLIC "-//W3C//DTD SVG 20010904//EN"
 "http://www.w3.org/TR/2001/REC-SVG-20010904/DTD/svg10.dtd">
<svg version="1.0" xmlns="http://www.w3.org/2000/svg"
 width="872.000000pt" height="600.000000pt" viewBox="0 0 872.000000 600.000000"
 preserveAspectRatio="xMidYMid meet">

<g transform="translate(0.000000,600.000000) scale(0.100000,-0.100000)"
fill="#000000" stroke="none">
<path d="M2290 5977 c0 -8 15 -90 34 -183 91 -449 147 -837 201 -1389 39 -393
55 -599 55 -713 0 -101 0 -102 23 -97 146 32 334 34 499 5 128 -22 147 -27
499 -139 140 -44 258 -81 261 -81 3 0 9 48 12 108 57 983 98 1382 207 2036 22
131 44 248 50 259 11 19 18 19 153 13 1137 -55 1992 -558 2425 -1427 43 -86
95 -204 117 -262 21 -58 41 -104 46 -101 4 3 8 29 8 57 0 55 23 362 41 537 37
378 98 778 174 1155 25 121 45 223 45 228 0 4 -1091 7 -2425 7 -2012 0 -2425
-2 -2425 -13z"/>
<path d="M8220 3970 c-380 -86 -585 -162 -1036 -388 -443 -221 -725 -335
-1024 -413 -298 -78 -641 -111 -962 -91 -499 30 -927 123 -1708 371 -301 96
-413 121 -576 128 -150 7 -282 -13 -446 -67 -181 -60 -334 -137 -893 -451
-340 -190 -733 -305 -1115 -326 -103 -6 -117 -8 -82 -15 109 -19 372 -28 518
-18 304 20 463 63 899 242 450 185 647 236 945 245 389 12 634 -45 1195 -276
437 -181 616 -234 930 -277 182 -25 603 -25 805 0 176 21 397 60 501 86 356
91 695 290 1264 740 194 154 334 255 432 314 91 54 294 149 401 186 50 18 92
34 92 36 0 6 -4 5 -140 -26z"/>
<path d="M2630 3141 l-45 -6 -6 -455 c-4 -250 -12 -529 -18 -620 -51 -733
-119 -1268 -231 -1826 -22 -109 -40 -204 -40 -211 0 -11 422 -13 2425 -13
1334 0 2425 3 2425 8 0 4 -20 106 -45 227 -104 512 -173 1031 -205 1540 -16
247 -16 247 -49 150 -211 -605 -648 -1103 -1227 -1398 -400 -203 -820 -308
-1336 -333 -82 -3 -148 -4 -148 0 0 3 -18 105 -40 225 -124 689 -192 1354
-220 2175 -5 159 -11 290 -12 291 -2 1 -66 27 -143 58 -258 102 -441 152 -668
182 -115 15 -327 18 -417 6z"/>
</g>
</svg>
