<svg width="15" height="16" viewBox="0 0 15 16" fill="none" xmlns="http://www.w3.org/2000/svg">
<g id="Group">
<g id="Group_2">
<g id="Group_3">
<path id="Vector" d="M8.4801 5.52197L0.440003 13.4717C0.349557 13.5609 0.299988 13.6798 0.299988 13.8064C0.299988 13.933 0.349557 14.0519 0.440003 14.1411L1.37172 15.0613C1.46193 15.1509 1.58221 15.1999 1.71001 15.1999C1.83805 15.1999 1.95833 15.1509 2.04854 15.0615L10.0889 7.11248L8.4801 5.52197Z" fill="white"/>
<path id="Vector_2" d="M12.541 4.0188L11.61 3.09767C11.4298 2.91952 11.115 2.91836 10.9323 3.09767L8.81253 5.19356L10.4213 6.78407L12.5413 4.68817C12.6315 4.59898 12.6813 4.48007 12.6813 4.35348C12.6813 4.2269 12.6312 4.10799 12.541 4.0188Z" fill="white"/>
</g>
<path id="Vector_3" d="M9.77431 1.44863H9.51965V1.19686C9.51965 1.06865 9.4144 0.9646 9.28473 0.9646C9.15505 0.9646 9.0498 1.06865 9.0498 1.19686V1.44863H8.79444C8.66476 1.44863 8.55951 1.55268 8.55951 1.68088C8.55951 1.80909 8.66476 1.91314 8.79444 1.91314H9.0498V2.16491C9.0498 2.29312 9.15505 2.39717 9.28473 2.39717C9.4144 2.39717 9.51965 2.29312 9.51965 2.16491V1.91314H9.77431C9.90399 1.91314 10.0092 1.80909 10.0092 1.68088C10.0092 1.55268 9.90399 1.44863 9.77431 1.44863Z" fill="white"/>
<path id="Vector_4" d="M14.4651 6.06752H14.2097V5.81575C14.2097 5.68755 14.1045 5.5835 13.9748 5.5835C13.8451 5.5835 13.7399 5.68755 13.7399 5.81575V6.06752H13.4852C13.3556 6.06752 13.2503 6.17157 13.2503 6.29978C13.2503 6.42799 13.3556 6.53204 13.4852 6.53204H13.7399V6.7845C13.7399 6.91271 13.8451 7.01676 13.9748 7.01676C14.1045 7.01676 14.2097 6.91271 14.2097 6.7845V6.53204H14.4651C14.5948 6.53204 14.7 6.42799 14.7 6.29978C14.7 6.17157 14.595 6.06752 14.4651 6.06752Z" fill="white"/>
<path id="Vector_5" d="M14.4491 1.28407H14.1944V1.03231C14.1944 0.9041 14.0892 0.800049 13.9595 0.800049C13.8298 0.800049 13.7246 0.9041 13.7246 1.03231V1.28407H13.4699C13.3402 1.28407 13.235 1.38813 13.235 1.51633C13.235 1.64454 13.3402 1.74859 13.4699 1.74859H13.7246V2.00036C13.7246 2.12857 13.8298 2.23262 13.9595 2.23262C14.0892 2.23262 14.1944 2.12857 14.1944 2.00036V1.74859H14.4491C14.5788 1.74859 14.684 1.64454 14.684 1.51633C14.684 1.38813 14.5788 1.28407 14.4491 1.28407Z" fill="white"/>
<g id="Group_4">
<path id="Vector_6" d="M7.61957 3.78263H7.61722C7.48754 3.78263 7.38229 3.67858 7.38229 3.55037C7.38229 3.42217 7.48754 3.31812 7.61722 3.31812C7.7469 3.31812 7.85332 3.42217 7.85332 3.55037C7.85332 3.67858 7.74948 3.78263 7.61957 3.78263Z" fill="white"/>
</g>
<g id="Group_5">
<path id="Vector_7" d="M11.9521 1.7487H11.9497C11.8201 1.7487 11.7148 1.64464 11.7148 1.51644C11.7148 1.38823 11.8201 1.28418 11.9497 1.28418C12.0794 1.28418 12.1858 1.38823 12.1858 1.51644C12.1858 1.64464 12.0818 1.7487 11.9521 1.7487Z" fill="white"/>
</g>
<g id="Group_6">
<path id="Vector_8" d="M11.6948 8.13273H11.6925C11.5628 8.13273 11.4576 8.02868 11.4576 7.90047C11.4576 7.77226 11.5628 7.66821 11.6925 7.66821C11.8222 7.66821 11.9286 7.77226 11.9286 7.90047C11.9286 8.02868 11.8245 8.13273 11.6948 8.13273Z" fill="white"/>
</g>
<g id="Group_7">
<path id="Vector_9" d="M13.9731 3.8383H13.9715C13.8418 3.8383 13.7365 3.73424 13.7365 3.60604C13.7365 3.47783 13.8418 3.37378 13.9715 3.37378C14.1011 3.37378 14.2071 3.47783 14.2071 3.60604C14.2071 3.73424 14.1028 3.8383 13.9731 3.8383Z" fill="white"/>
</g>
</g>
</g>
</svg>
