<svg width="17" height="16" viewBox="0 0 17 16" fill="none" xmlns="http://www.w3.org/2000/svg">
<g id="Interface / Book_Open">
<path id="Vector" d="M8.5 6.53312V13.3331M8.5 6.53312C8.5 5.41302 8.5 4.8532 8.71799 4.42537C8.90973 4.04905 9.21547 3.74299 9.5918 3.55124C10.0196 3.33325 10.5798 3.33325 11.6999 3.33325H13.4332C13.8066 3.33325 13.9934 3.33325 14.136 3.40591C14.2614 3.46983 14.3632 3.57174 14.4271 3.69718C14.4997 3.83979 14.5 4.02662 14.5 4.39998V10.2666C14.5 10.64 14.4997 10.8264 14.4271 10.9691C14.3632 11.0945 14.2617 11.1967 14.1362 11.2607C13.9937 11.3333 13.8073 11.3333 13.4347 11.3333H11.5462C10.9201 11.3333 10.6064 11.3333 10.3223 11.4196C10.0707 11.496 9.83711 11.6211 9.63399 11.788C9.40455 11.9766 9.23068 12.2371 8.88336 12.7581L8.5 13.3331M8.5 6.53312C8.5 5.41302 8.49989 4.8532 8.2819 4.42537C8.09015 4.04905 7.78418 3.74299 7.40785 3.55124C6.98003 3.33325 6.41984 3.33325 5.29974 3.33325H3.56641C3.19304 3.33325 3.00654 3.33325 2.86393 3.40591C2.73849 3.46983 2.63658 3.57174 2.57266 3.69718C2.5 3.83979 2.5 4.02662 2.5 4.39998V10.2666C2.5 10.64 2.5 10.8264 2.57266 10.9691C2.63658 11.0945 2.73849 11.1967 2.86393 11.2607C3.0064 11.3333 3.19267 11.3333 3.56531 11.3333H5.45382C6.07996 11.3333 6.39295 11.3333 6.67712 11.4196C6.9287 11.496 7.16341 11.6211 7.36654 11.788C7.59505 11.9758 7.76781 12.235 8.11232 12.7517L8.5 13.3331" stroke="black" stroke-linecap="round" stroke-linejoin="round"/>
</g>
</svg>
