<svg width="16" height="17" viewBox="0 0 16 17" fill="none" xmlns="http://www.w3.org/2000/svg">
<g id="File / Folder_Document">
<g id="Group">
<path id="Vector" d="M11.5 2.74121H3.5C2.4 2.74121 1.5 3.64121 1.5 4.74121V12.7412C1.5 13.8412 2.4 14.7412 3.5 14.7412H11.5C12.6 14.7412 13.5 13.8412 13.5 12.7412V4.74121C13.5 3.64121 12.6 2.74121 11.5 2.74121ZM3.5 3.31264H7.21429V8.4555H2.07143V4.74121C2.07143 3.9555 2.71429 3.31264 3.5 3.31264ZM2.07143 12.7412V9.02693H7.21429V14.1698H3.5C2.71429 14.1698 2.07143 13.5269 2.07143 12.7412ZM11.5 14.1698H7.78571V9.02693H12.9286V12.7412C12.9286 13.5269 12.2857 14.1698 11.5 14.1698ZM12.9286 8.4555H7.78571V3.31264H11.5C12.2857 3.31264 12.9286 3.9555 12.9286 4.74121V8.4555Z" fill="black"/>
<path id="Vector_2" d="M6.02857 11.0272H4.88571V9.88435C4.88571 9.7272 4.75714 9.59863 4.6 9.59863C4.44285 9.59863 4.31428 9.7272 4.31428 9.88435V11.0272H3.17143C3.01428 11.0272 2.88571 11.1558 2.88571 11.3129C2.88571 11.4701 3.01428 11.5986 3.17143 11.5986H4.31428V12.7415C4.31428 12.8986 4.44285 13.0272 4.6 13.0272C4.75714 13.0272 4.88571 12.8986 4.88571 12.7415V11.5986H6.02857C6.18571 11.5986 6.31428 11.4701 6.31428 11.3129C6.31428 11.1558 6.18571 11.0272 6.02857 11.0272Z" fill="black"/>
<path id="Vector_3" d="M3.17143 6.26967H6.02857C6.18571 6.26967 6.31428 6.1411 6.31428 5.98396C6.31428 5.82681 6.18571 5.69824 6.02857 5.69824H3.17143C3.01428 5.69824 2.88571 5.82681 2.88571 5.98396C2.88571 6.1411 3.01428 6.26967 3.17143 6.26967Z" fill="black"/>
<path id="Vector_4" d="M11.7 12.0269H8.84286C8.68572 12.0269 8.55714 12.1554 8.55714 12.3126C8.55714 12.4697 8.68572 12.5983 8.84286 12.5983H11.7C11.8571 12.5983 11.9857 12.4697 11.9857 12.3126C11.9857 12.1554 11.8571 12.0269 11.7 12.0269Z" fill="black"/>
<path id="Vector_5" d="M11.7 10.4556H8.84286C8.68572 10.4556 8.55714 10.5841 8.55714 10.7413C8.55714 10.8984 8.68572 11.027 8.84286 11.027H11.7C11.8571 11.027 11.9857 10.8984 11.9857 10.7413C11.9857 10.5841 11.8571 10.4556 11.7 10.4556Z" fill="black"/>
<path id="Vector_6" d="M11.4714 4.7698C11.3571 4.65551 11.1857 4.65551 11.0714 4.7698L10.2571 5.58408L9.44285 4.7698C9.32857 4.65551 9.15714 4.65551 9.04285 4.7698C8.92857 4.88408 8.92857 5.05551 9.04285 5.1698L9.85714 5.98408L9.04285 6.79837C8.92857 6.91265 8.92857 7.08408 9.04285 7.19837C9.1 7.25551 9.17142 7.28408 9.24285 7.28408C9.31428 7.28408 9.38571 7.25551 9.44285 7.19837L10.2571 6.38408L11.0714 7.19837C11.1286 7.25551 11.2 7.28408 11.2714 7.28408C11.3429 7.28408 11.4143 7.25551 11.4714 7.19837C11.5857 7.08408 11.5857 6.91265 11.4714 6.79837L10.6571 5.98408L11.4714 5.1698C11.5857 5.05551 11.5857 4.88408 11.4714 4.7698Z" fill="black"/>
</g>
</g>
</svg>
