<svg width="24" height="25" viewBox="0 0 24 25" fill="none" xmlns="http://www.w3.org/2000/svg">
<g id="Calendar / Calendar_Week">
<g id="Vector">
<path d="M7.2002 4.74121H8H16H16.8002C17.9203 4.74121 18.4796 4.74121 18.9074 4.9592C19.2837 5.15094 19.5905 5.45668 19.7822 5.83301C20 6.26041 20 6.8202 20 7.93812V8.74121V17.5448C20 18.6627 20 19.2217 19.7822 19.6491C19.5905 20.0254 19.2837 20.3317 18.9074 20.5234C18.48 20.7412 17.921 20.7412 16.8031 20.7412H7.19691C6.07899 20.7412 5.5192 20.7412 5.0918 20.5234C4.71547 20.3317 4.40973 20.0254 4.21799 19.6491C4 19.2213 4 18.6615 4 17.5414V8.74121V7.94141C4 6.8213 4 6.26083 4.21799 5.83301C4.40973 5.45668 4.71547 5.15094 5.0918 4.9592C5.51962 4.74121 6.08009 4.74121 7.2002 4.74121Z" fill="url(#paint0_linear_43_1136)" fill-opacity="0.2"/>
<path d="M4 8.74121H20M4 8.74121V17.5414C4 18.6615 4 19.2213 4.21799 19.6491C4.40973 20.0254 4.71547 20.3317 5.0918 20.5234C5.5192 20.7412 6.07899 20.7412 7.19691 20.7412H16.8031C17.921 20.7412 18.48 20.7412 18.9074 20.5234C19.2837 20.3317 19.5905 20.0254 19.7822 19.6491C20 19.2217 20 18.6627 20 17.5448V8.74121M4 8.74121V7.94141C4 6.8213 4 6.26083 4.21799 5.83301C4.40973 5.45668 4.71547 5.15094 5.0918 4.9592C5.51962 4.74121 6.08009 4.74121 7.2002 4.74121H8M20 8.74121V7.93812C20 6.8202 20 6.26041 19.7822 5.83301C19.5905 5.45668 19.2837 5.15094 18.9074 4.9592C18.4796 4.74121 17.9203 4.74121 16.8002 4.74121H16M8 4.74121H16M8 4.74121V2.74121M16 4.74121V2.74121M16 12.7412H8" stroke="url(#paint1_linear_43_1136)" stroke-width="2" stroke-linecap="round" stroke-linejoin="round"/>
</g>
</g>
<defs>
<linearGradient id="paint0_linear_43_1136" x1="5.1881" y1="-4.8164" x2="29.6417" y2="-1.46259" gradientUnits="userSpaceOnUse">
<stop stop-color="#233DFF"/>
<stop offset="0.28" stop-color="#E17AFF"/>
<stop offset="0.7" stop-color="#FD972C"/>
</linearGradient>
<linearGradient id="paint1_linear_43_1136" x1="5.1881" y1="-4.8164" x2="29.6417" y2="-1.46259" gradientUnits="userSpaceOnUse">
<stop stop-color="#233DFF"/>
<stop offset="0.28" stop-color="#E17AFF"/>
<stop offset="0.7" stop-color="#FD972C"/>
</linearGradient>
</defs>
</svg>
