<svg width="17" height="12" viewBox="0 0 17 12" fill="none" xmlns="http://www.w3.org/2000/svg">
<g id="Group">
<g id="Group_2">
<path id="Vector" fill-rule="evenodd" clip-rule="evenodd" d="M0.5 0.614741C0.5 0.275229 0.777709 0 1.11741 0H15.8826C16.2236 0 16.5 0.272405 16.5 0.614741V1.23141C16.5 1.57092 16.2223 1.84615 15.8826 1.84615H1.11741C0.776425 1.84615 0.5 1.57375 0.5 1.23141V0.614741ZM0.5 5.53782C0.5 5.19831 0.777709 4.92308 1.11741 4.92308H15.8826C16.2236 4.92308 16.5 5.19548 16.5 5.53782V6.15449C16.5 6.494 16.2223 6.76923 15.8826 6.76923H1.11741C0.776425 6.76923 0.5 6.49682 0.5 6.15449V5.53782ZM0.5 10.4616C0.5 10.1221 0.777709 9.84686 1.11741 9.84686H15.8826C16.2236 9.84686 16.5 10.1193 16.5 10.4616V11.0783C16.5 11.4178 16.2223 11.693 15.8826 11.693H1.11741C0.776425 11.693 0.5 11.4206 0.5 11.0783V10.4616Z" fill="#545454"/>
</g>
</g>
</svg>
