<svg width="707" height="134" viewBox="0 0 707 134" fill="none" xmlns="http://www.w3.org/2000/svg">
  <path d="M562.365 28.1044H591.432V126.27H562.365V28.1044Z" fill="url(#paint0_linear_18_340)"/>
  <path d="M677.433 126.385H706.5L667.288 28.1121H638.067L598.855 126.385H627.922L627.651 126.278H627.643H627.937L634.819 105.303H670.559L677.441 126.278H677.735H677.727L677.456 126.393L677.433 126.385ZM640.039 89.382L649.457 60.3777C650.501 57.1088 651.846 52.7939 652.449 49.0713H652.898C653.648 52.7862 654.839 57.1011 655.89 60.2238L665.463 89.3744H640.046L640.039 89.382Z" fill="url(#paint1_linear_18_340)"/>
  <path d="M343.146 97.1812L350.183 105.257C352.402 107.803 352.178 111.749 349.657 113.995C342.102 120.717 329.56 126.332 312.471 126.332C280.048 126.332 260.67 106.049 260.67 77.245C260.67 48.4406 280.04 28.1583 309.819 28.1583C337.957 28.1583 354.072 47.2254 354.072 73.3916C354.072 76.2297 353.894 78.6295 353.709 80.3754C353.523 82.1214 351.984 83.5289 350.167 83.5289H288.415C290.858 96.3044 299.836 105.234 315.742 105.234C326.892 105.234 333.697 100.912 338.035 96.8966C339.512 95.5352 341.824 95.666 343.146 97.1812ZM288.415 69.1306H328.586C328.385 57.7703 321.448 49.2559 309.826 49.2559C298.815 49.2559 290.456 56.3551 288.415 69.1306Z" fill="url(#paint2_linear_18_340)"/>
  <path d="M460.643 118.225C460.859 122.009 458.13 125.347 454.356 125.855C452.322 126.124 449.933 126.332 447.343 126.332C434.089 126.332 426.952 121.263 425.111 111.118C422.049 117.002 414.1 126.332 394.112 126.332C374.123 126.332 361.48 115.987 361.48 99.9655C361.48 76.2297 386.565 70.3535 422.451 69.5382H423.673V65.2771C423.673 55.5398 417.967 49.0482 406.136 49.0482C395.534 49.0482 389.619 53.3093 389.619 60.2085C389.619 60.3238 389.619 60.4469 389.619 60.5623C389.665 62.5313 388.242 64.2234 386.286 64.5465L372.893 66.7693C368.803 67.4461 364.983 64.4542 364.774 60.3316C364.743 59.7701 364.728 59.1855 364.728 58.5856C364.728 40.3261 380.835 28.1583 407.35 28.1583C435.697 28.1583 450.992 42.3567 450.992 66.4924V97.7273C450.992 102.188 452.624 104.019 456.297 104.019H456.336C458.276 104.019 459.885 105.526 460.001 107.457L460.627 118.225H460.643ZM423.696 83.5366H422.475C399.432 84.1442 388.621 87.39 388.621 96.3197C388.621 102.611 393.717 105.857 402.084 105.857C415.546 105.857 423.696 98.9579 423.696 91.2511V83.5366Z" fill="url(#paint3_linear_18_340)"/>
  <path d="M468.081 112.387C468.081 108.18 469.698 104.127 472.59 101.058L516.016 55.0322L516.093 54.9553C517.91 53.0017 516.51 49.8328 513.835 49.8328H476.131C472.497 49.8328 469.543 46.9023 469.543 43.2797V35.6498C469.543 31.5195 472.907 28.1737 477.059 28.1737H541.58C548.152 28.1737 553.488 33.4731 553.488 40.0185V42.326C553.488 46.4793 551.918 50.4789 549.096 53.54L507.858 98.1349C507.347 98.7041 506.883 99.2194 506.45 99.6963C504.664 101.658 506.064 104.803 508.724 104.803H548.361C551.995 104.803 554.949 107.734 554.949 111.356V118.986C554.949 123.117 551.586 126.462 547.433 126.462H479.982C473.409 126.462 468.074 121.163 468.074 114.618V112.403L468.081 112.387Z" fill="url(#paint4_linear_18_340)"/>
  <path d="M0.500011 61.4776H174.251C174.251 27.5199 146.576 0 112.445 0H62.3142C28.1749 0 0.507745 27.5276 0.507745 61.4776H0.500011Z" fill="url(#paint5_linear_18_340)"/>
  <path d="M62.3065 134H231.781C231.781 100.042 204.107 72.5224 169.975 72.5224H0.5C0.5 106.48 28.1749 134 62.3065 134Z" fill="url(#paint6_linear_18_340)"/>
  <defs>
    <linearGradient id="paint0_linear_18_340" x1="52.9248" y1="-56.2622" x2="714.826" y2="481.811" gradientUnits="userSpaceOnUse">
      <stop stop-color="#233DFF"/>
      <stop offset="0.28" stop-color="#E17AFF"/>
      <stop offset="0.7" stop-color="#FD972C"/>
    </linearGradient>
    <linearGradient id="paint1_linear_18_340" x1="52.9248" y1="-56.2622" x2="714.826" y2="481.811" gradientUnits="userSpaceOnUse">
      <stop stop-color="#233DFF"/>
      <stop offset="0.28" stop-color="#E17AFF"/>
      <stop offset="0.7" stop-color="#FD972C"/>
    </linearGradient>
    <linearGradient id="paint2_linear_18_340" x1="52.9248" y1="-56.2622" x2="714.826" y2="481.811" gradientUnits="userSpaceOnUse">
      <stop stop-color="#233DFF"/>
      <stop offset="0.28" stop-color="#E17AFF"/>
      <stop offset="0.7" stop-color="#FD972C"/>
    </linearGradient>
    <linearGradient id="paint3_linear_18_340" x1="52.9248" y1="-56.2622" x2="714.826" y2="481.811" gradientUnits="userSpaceOnUse">
      <stop stop-color="#233DFF"/>
      <stop offset="0.28" stop-color="#E17AFF"/>
      <stop offset="0.7" stop-color="#FD972C"/>
    </linearGradient>
    <linearGradient id="paint4_linear_18_340" x1="52.9248" y1="-56.2622" x2="714.826" y2="481.811" gradientUnits="userSpaceOnUse">
      <stop stop-color="#233DFF"/>
      <stop offset="0.28" stop-color="#E17AFF"/>
      <stop offset="0.7" stop-color="#FD972C"/>
    </linearGradient>
    <linearGradient id="paint5_linear_18_340" x1="52.9248" y1="-56.2622" x2="714.826" y2="481.811" gradientUnits="userSpaceOnUse">
      <stop stop-color="#233DFF"/>
      <stop offset="0.28" stop-color="#E17AFF"/>
      <stop offset="0.7" stop-color="#FD972C"/>
    </linearGradient>
    <linearGradient id="paint6_linear_18_340" x1="52.9248" y1="-56.2622" x2="714.826" y2="481.811" gradientUnits="userSpaceOnUse">
      <stop stop-color="#233DFF"/>
      <stop offset="0.28" stop-color="#E17AFF"/>
      <stop offset="0.7" stop-color="#FD972C"/>
    </linearGradient>
  </defs>
</svg>
