<svg width="16" height="16" viewBox="0 0 16 16" fill="none" xmlns="http://www.w3.org/2000/svg">
<g id="File / File_Document">
<path id="Vector" d="M5.99999 11.3333H9.99999M5.99999 9.33333H9.99999M8.66691 2.00058C8.60322 2 8.53158 2 8.4498 2H5.46679C4.72006 2 4.34641 2 4.06119 2.14533C3.81031 2.27316 3.60648 2.47698 3.47865 2.72786C3.33333 3.01308 3.33333 3.38673 3.33333 4.13346V11.8668C3.33333 12.6135 3.33333 12.9867 3.47865 13.2719C3.60648 13.5228 3.81031 13.727 4.06119 13.8548C4.34613 14 4.71933 14 5.46462 14L10.5354 14C11.2807 14 11.6533 14 11.9383 13.8548C12.1891 13.727 12.3936 13.5228 12.5215 13.2719C12.6667 12.987 12.6667 12.6143 12.6667 11.8691V6.21712C12.6667 6.13535 12.6666 6.06369 12.666 6M8.66691 2.00058C8.85722 2.00232 8.97714 2.00938 9.09211 2.03698C9.22816 2.06964 9.35856 2.12351 9.47786 2.19661C9.61237 2.27904 9.72787 2.39454 9.95833 2.625L12.042 4.70866C12.2726 4.93926 12.3872 5.05424 12.4697 5.1888C12.5428 5.30809 12.5969 5.43817 12.6296 5.57422C12.6572 5.68919 12.6643 5.8097 12.666 6M8.66691 2.00058L8.66666 3.86681C8.66666 4.61354 8.66666 4.98677 8.81199 5.27198C8.93982 5.52287 9.14364 5.72699 9.39453 5.85482C9.67946 6 10.0527 6 10.7979 6H12.666" stroke="black" stroke-linecap="round" stroke-linejoin="round"/>
</g>
</svg>
