<svg width="24" height="25" viewBox="0 0 24 25" fill="none" xmlns="http://www.w3.org/2000/svg">
<g id="File / Folder_Document">
<g id="Vector">
<path d="M3 17.5412V6.74121C3 5.63664 3.89543 4.74121 5 4.74121H8.67452C9.1637 4.74121 9.40915 4.74121 9.63933 4.79647C9.8434 4.84546 10.0379 4.92648 10.2168 5.03613C10.4186 5.15978 10.5918 5.33304 10.9375 5.67871L12 6.74121H17.8C18.9201 6.74121 19.4796 6.74121 19.9074 6.9592C20.2837 7.15094 20.5905 7.45668 20.7822 7.83301C21.0002 8.26083 21.0002 8.82088 21.0002 9.94099L21.0002 17.541C21.0002 18.6611 21.0002 19.2212 20.7822 19.649C20.5905 20.0253 20.2843 20.3317 19.908 20.5234C19.4806 20.7412 18.9216 20.7412 17.8037 20.7412H6.19691C5.07899 20.7412 4.5192 20.7412 4.0918 20.5234C3.71547 20.3317 3.40973 20.0249 3.21799 19.6486C3 19.2208 3 18.6613 3 17.5412Z" fill="url(#paint0_linear_18_226)" fill-opacity="0.2"/>
<path d="M9 15.7412H15M9 12.7412H15M3 6.74121V17.5412C3 18.6613 3 19.2208 3.21799 19.6486C3.40973 20.0249 3.71547 20.3317 4.0918 20.5234C4.5192 20.7412 5.07899 20.7412 6.19691 20.7412H17.8037C18.9216 20.7412 19.4806 20.7412 19.908 20.5234C20.2843 20.3317 20.5905 20.0253 20.7822 19.649C21.0002 19.2212 21.0002 18.6611 21.0002 17.541L21.0002 9.94099C21.0002 8.82088 21.0002 8.26083 20.7822 7.83301C20.5905 7.45668 20.2837 7.15094 19.9074 6.9592C19.4796 6.74121 18.9201 6.74121 17.8 6.74121H12M3 6.74121H12M3 6.74121C3 5.63664 3.89543 4.74121 5 4.74121H8.67452C9.1637 4.74121 9.40915 4.74121 9.63933 4.79647C9.8434 4.84546 10.0379 4.92648 10.2168 5.03613C10.4186 5.15978 10.5918 5.33304 10.9375 5.67871L12 6.74121" stroke="url(#paint1_linear_18_226)" stroke-width="2" stroke-linecap="round" stroke-linejoin="round"/>
</g>
</g>
<defs>
<linearGradient id="paint0_linear_18_226" x1="4.33663" y1="-1.97667" x2="31.5449" y2="2.74622" gradientUnits="userSpaceOnUse">
<stop stop-color="#233DFF"/>
<stop offset="0.28" stop-color="#E17AFF"/>
<stop offset="0.7" stop-color="#FD972C"/>
</linearGradient>
<linearGradient id="paint1_linear_18_226" x1="4.33663" y1="-1.97667" x2="31.5449" y2="2.74622" gradientUnits="userSpaceOnUse">
<stop stop-color="#233DFF"/>
<stop offset="0.28" stop-color="#E17AFF"/>
<stop offset="0.7" stop-color="#FD972C"/>
</linearGradient>
</defs>
</svg>
